<svg width="67" height="67" viewBox="0 0 67 67" fill="none" xmlns="http://www.w3.org/2000/svg">
<path d="M0.0810547 10.3319H15.5111V15.8951H0.0810547V10.3319ZM0.0810547 0H15.5111V5.56321H0.0810547V0ZM27.765 20.5842H0.0810547V26.1474H26.7275C29.6449 26.1474 36.4522 26.2267 38.9808 31.2337V28.1343C37.749 23.2066 34.1185 20.5842 27.7647 20.5842H27.765ZM27.8294 30.9158H0.0810547V36.479H26.7275C33.2107 36.479 37.2953 36.7969 38.9808 37.9097V35.4458C37.684 31.5516 32.2383 30.9158 27.8297 30.9158H27.8294ZM27.765 57.1425H0.0810547V51.5793H26.7275C29.6449 51.5793 36.4522 51.4999 38.9808 46.4929V49.5923C37.749 54.52 34.1185 57.1425 27.7647 57.1425H27.765ZM27.8294 46.8109H0.0810547V41.2477H26.7275C33.2107 41.2477 37.2953 40.9297 38.9808 39.817V42.2808C37.684 46.175 32.2383 46.8109 27.8297 46.8109H27.8294ZM45.7234 66.7592H66.0811V63.3415H46.3068C44.5563 63.3415 40.4073 63.2622 38.9161 60.3215V62.2291C39.6292 65.1695 41.8335 66.7592 45.7234 66.7592ZM45.6587 60.4805H66.0163V57.0631H46.3068C42.352 57.0631 39.8883 56.9042 38.9159 56.189V57.699C39.6937 60.0832 43.0001 60.4805 45.6584 60.4805H45.6587Z" fill="black"/>
</svg>
