<svg width="59" height="67" viewBox="0 0 59 67" fill="none" xmlns="http://www.w3.org/2000/svg">
<path d="M53.5681 59.8059L58.8516 0H0.0810547L0.150102 0.776083L5.35629 59.8143L5.40048 60.3056L29.244 67H29.6196L53.5184 60.3L53.5626 59.8087L53.5681 59.8059ZM29.5174 13.0622H46.5943L46.0806 19.0922L29.233 26.6632L29.5147 28.0255H45.3238L43.5037 49.1054L29.4567 53.0417L15.4151 49.111L14.5313 39.0163H20.312L20.776 44.1335L20.8202 44.6304L29.3407 46.9195H29.708L38.1346 44.5522L38.176 44.0581L38.9714 34.6055L39.035 33.835H14.048L13.5232 27.7687L30.9481 20.2284L30.6719 18.8605H12.7748L12.2638 13.0538H29.4981L29.5174 13.0622Z" fill="black"/>
</svg>
