<svg width="68" height="68" viewBox="0 0 68 68" fill="none" xmlns="http://www.w3.org/2000/svg">
<path d="M65.8175 30.6867L36.5723 1.2703C35.7627 0.456901 34.665 0 33.5206 0C32.3762 0 31.2786 0.456901 30.469 1.2703L24.3881 7.38067L32.0931 15.1288C36.14 13.7542 39.9716 17.6508 38.5823 21.6979L46.0091 29.1663C51.1283 27.3916 55.1588 33.8284 51.3138 37.6919C47.3521 41.6757 40.8136 37.2603 42.9387 32.0763L36.0069 25.1147V43.4398C39.7906 45.3257 39.336 49.7337 37.3649 51.7113C36.4018 52.6792 35.096 53.2229 33.7345 53.2229C32.3729 53.2229 31.0671 52.6792 30.1041 51.7113C27.4764 49.0644 28.4485 44.6565 31.7865 43.2894V24.7914C28.6758 23.5116 28.1075 20.1684 28.9989 18.0238L21.403 10.3764L1.3449 30.5498C0.535665 31.3638 0.0810547 32.4676 0.0810547 33.6186C0.0810547 34.7695 0.535665 35.8734 1.3449 36.6873L30.5991 66.1037C31.4084 66.917 32.5058 67.3738 33.65 67.3738C34.7942 67.3738 35.8915 66.917 36.7009 66.1037L65.8175 36.8241C66.6267 36.0102 67.0813 34.9064 67.0813 33.7554C67.0813 32.6045 66.6267 31.5006 65.8175 30.6867Z" fill="black"/>
</svg>
