<svg width="54" height="72" viewBox="0 0 54 72" fill="none" xmlns="http://www.w3.org/2000/svg">
<path d="M17.6379 55.6763C17.6379 55.6763 14.8839 57.2805 19.5931 57.8183C25.2991 58.4753 28.2174 58.383 34.4994 57.186C34.4994 57.186 36.1486 58.23 38.4594 59.1323C24.3631 65.169 6.56114 58.77 17.6356 55.6763H17.6379ZM15.9121 47.8013C15.9121 47.8013 12.8184 50.085 17.5299 50.5643C23.6386 51.1965 28.4401 51.2573 36.7719 49.653C36.7719 49.653 37.9216 50.814 39.7396 51.4553C22.7004 56.4345 3.71488 51.8423 15.9144 47.8013H15.9121ZM30.4314 34.4318C33.8986 38.4278 29.5156 42.0255 29.5156 42.0255C29.5156 42.0255 38.3289 37.4648 34.2856 31.7723C30.5034 26.451 27.5964 23.8163 43.2969 14.7083C43.2969 14.7083 18.6526 20.862 30.4291 34.434L30.4314 34.4318ZM49.0659 61.5128C49.0659 61.5128 51.1066 63.1868 46.8271 64.4895C38.6934 66.9488 12.9714 67.6868 5.82314 64.5818C3.25813 63.468 8.07314 61.911 9.58514 61.5938C11.1669 61.2428 12.0691 61.3148 12.0691 61.3148C9.20939 59.2988 -6.39887 65.2635 4.13789 66.9735C32.8839 71.6378 56.5291 64.8765 49.0659 61.5128ZM18.9609 39.6338C18.9609 39.6338 5.87264 42.7388 14.3191 43.8638C17.8944 44.343 25.0089 44.2395 31.6419 43.677C37.0531 43.218 42.4936 42.246 42.4936 42.246C42.4936 42.246 40.5834 43.065 39.1996 44.0168C25.9089 47.5088 0.236384 45.8798 7.62989 42.3068C13.8759 39.294 18.9609 39.6338 18.9609 39.6338ZM42.4329 52.758C55.9329 45.7268 49.6869 38.988 45.3399 39.9038C44.2711 40.113 43.7919 40.3155 43.7919 40.3155C43.7919 40.3155 44.1789 39.6923 44.9416 39.4245C53.5659 36.3893 60.1989 48.3638 42.1629 53.1113C42.1629 53.1 42.3766 52.9245 42.4329 52.7603V52.758ZM34.2879 0C34.2879 0 41.7669 7.47675 27.1869 18.9833C15.5049 28.2173 24.5251 33.48 27.1869 39.492C20.3671 33.3383 15.3631 27.927 18.7156 22.887C23.6476 15.4688 37.3006 11.8823 34.2879 0ZM20.2839 71.7773C33.2461 72.5963 53.1541 71.3093 53.6379 65.1803C53.6379 65.1803 52.7221 67.5 42.9121 69.3495C31.8511 71.4353 18.1981 71.1878 10.1004 69.8535C10.1004 69.8535 11.7654 71.2238 20.2816 71.7773H20.2839Z" fill="black"/>
</svg>
