<svg width="64" height="63" viewBox="0 0 64 63" fill="none" xmlns="http://www.w3.org/2000/svg">
<path d="M0.0810547 0V63H63.0811V0H0.0810547ZM34.3654 49.1344C34.3654 55.2656 30.7654 58.0641 25.5201 58.0641C20.7811 58.0641 18.0389 55.6172 16.6326 52.65L21.4561 49.7391C22.3842 51.3844 23.2279 52.7766 25.267 52.7766C27.2076 52.7766 28.4451 52.0172 28.4451 49.05V28.9266H34.3654V49.1344ZM48.3717 58.0641C42.8732 58.0641 39.3154 55.4484 37.5857 52.0172L42.4092 49.2328C43.6748 51.3 45.3342 52.8328 48.2451 52.8328C50.692 52.8328 52.267 51.6094 52.267 49.9078C52.267 47.8828 50.6639 47.1656 47.9498 45.9703L46.4732 45.3375C42.1982 43.5234 39.3717 41.2313 39.3717 36.4078C39.3717 31.9641 42.7607 28.5891 48.0342 28.5891C51.8029 28.5891 54.5029 29.8969 56.4436 33.3281L51.8311 36.2812C50.8186 34.4672 49.7217 33.75 48.0201 33.75C46.2904 33.75 45.1936 34.8469 45.1936 36.2812C45.1936 38.0531 46.2904 38.7703 48.8357 39.8813L50.3123 40.5141C55.3467 42.6656 58.1732 44.8734 58.1732 49.8234C58.1732 55.1391 53.9826 58.0641 48.3717 58.0641Z" fill="black"/>
</svg>
