<svg width="73" height="65" viewBox="0 0 73 65" fill="none" xmlns="http://www.w3.org/2000/svg">
<path d="M72.0811 32.067C72.0811 27.297 66.1081 22.776 56.9491 19.974C59.0641 10.641 58.1251 3.213 53.9851 0.834C52.9819 0.272161 51.8465 -0.0106437 50.6971 0.015V3.285C51.3721 3.285 51.9151 3.42 52.3711 3.669C54.3661 4.815 55.2331 9.171 54.5581 14.778C54.3961 16.158 54.1321 17.61 53.8081 19.092C50.741 18.3529 47.6281 17.8187 44.4901 17.493C42.6206 14.9139 40.5811 12.4624 38.3851 10.155C43.1701 5.709 47.6611 3.273 50.7151 3.273V0C46.6771 0 41.3941 2.877 36.0511 7.866C30.7111 2.91 25.4251 0.0599999 21.3901 0.0599999V3.33C24.4291 3.33 28.9351 5.754 33.7201 10.17C31.6651 12.33 29.6101 14.778 27.6571 17.493C24.5126 17.8151 21.3941 18.3544 18.3241 19.107C17.9996 17.7024 17.7443 16.2827 17.5591 14.853C16.8691 9.243 17.7211 4.887 19.7041 3.729C20.1421 3.465 20.7151 3.345 21.3901 3.345V0.0749999C20.1601 0.0749999 19.0411 0.339 18.0751 0.894C13.9501 3.273 13.0261 10.683 15.1531 19.989C6.02406 22.809 0.0810547 27.312 0.0810547 32.067C0.0810547 36.837 6.05406 41.358 15.2131 44.157C13.0981 53.493 14.0371 60.921 18.1771 63.297C19.1311 63.855 20.2471 64.119 21.4771 64.119C25.5151 64.119 30.7981 61.242 36.1411 56.253C41.4811 61.212 46.7641 64.059 50.8021 64.059C51.9604 64.0835 53.1044 63.7998 54.1171 63.237C58.2421 60.861 59.1661 53.451 57.0391 44.145C66.1381 41.343 72.0811 36.822 72.0811 32.067ZM52.9711 22.278C52.401 24.2396 51.7403 26.1736 50.9911 28.074C49.7645 25.6883 48.4178 23.3663 46.9561 21.117C49.0411 21.426 51.0511 21.807 52.9741 22.278H52.9711ZM46.2511 37.908C45.1522 39.8264 43.9722 41.6971 42.7141 43.515C38.3108 43.9031 33.8822 43.9081 29.4781 43.53C26.9519 39.9215 24.7427 36.1013 22.8751 32.112C24.7398 28.1133 26.9397 24.2796 29.4511 20.652C33.8532 20.2631 38.2808 20.2571 42.6841 20.634C43.9021 22.38 45.0931 24.246 46.2361 26.214C47.3521 28.134 48.3661 30.084 49.2901 32.052C48.3558 34.0439 47.342 35.9974 46.2511 37.908ZM50.9911 36C51.7831 37.965 52.4611 39.933 53.0161 41.841C51.0961 42.312 49.0681 42.708 46.9711 43.014C48.4268 40.7443 49.7684 38.4034 50.9911 36ZM36.1111 51.66C34.7461 50.25 33.3811 48.681 32.0311 46.962C33.3511 47.022 34.7011 47.067 36.0661 47.067C37.4461 47.067 38.8111 47.037 40.1461 46.962C38.8261 48.681 37.4611 50.25 36.1111 51.66ZM25.1911 43.014C23.1683 42.7209 21.1601 42.3345 19.1731 41.856C19.7161 39.963 20.3911 38.01 21.1531 36.06C21.7561 37.23 22.3891 38.406 23.0791 39.582C23.7691 40.755 24.4711 41.901 25.1911 43.014ZM36.0361 12.474C37.4011 13.884 38.7661 15.453 40.1161 17.172C38.7961 17.112 37.4461 17.067 36.0811 17.067C34.7011 17.067 33.3361 17.097 32.0011 17.172C33.3211 15.453 34.6861 13.884 36.0361 12.474ZM25.1761 21.12C23.7207 23.3848 22.379 25.7207 21.1561 28.119C20.3857 26.2064 19.7099 24.257 19.1311 22.278C21.0511 21.822 23.0791 21.426 25.1761 21.12ZM11.8951 39.492C6.69905 37.278 3.33905 34.371 3.33905 32.067C3.33905 29.763 6.69905 26.841 11.8951 24.642C13.1551 24.099 14.5351 23.613 15.9601 23.16C16.7971 26.034 17.8981 29.028 19.2601 32.097C17.9742 34.9836 16.8866 37.9544 16.0051 40.989C14.6114 40.5575 13.2398 40.0579 11.8951 39.492ZM19.7911 60.462C17.7961 59.322 16.9291 54.96 17.6041 49.356C17.7661 47.976 18.0301 46.521 18.3541 45.039C21.2281 45.744 24.3691 46.287 27.6721 46.641C29.5416 49.2201 31.5811 51.6715 33.7771 53.979C28.9921 58.425 24.5011 60.861 21.4471 60.861C20.8709 60.8673 20.3021 60.7313 19.7911 60.465V60.462ZM54.6031 49.281C55.2931 54.888 54.4411 59.247 52.4581 60.405C52.0201 60.669 51.4471 60.786 50.7721 60.786C47.7331 60.786 43.2271 58.365 38.4421 53.946C40.6288 51.6482 42.6546 49.2024 44.5051 46.626C47.6496 46.3039 50.768 45.7646 53.8381 45.012C54.1771 46.494 54.4381 47.916 54.6031 49.281ZM60.2521 39.492C58.9921 40.035 57.6121 40.521 56.1871 40.974C55.29 37.924 54.1875 34.9381 52.8871 32.037C54.2371 28.986 55.3201 26.007 56.1421 23.145C57.5401 23.578 58.9167 24.0775 60.2671 24.642C65.4631 26.856 68.8231 29.763 68.8231 32.067C68.8081 34.371 65.4481 37.293 60.2521 39.492Z" fill="black"/>
</svg>
