<svg width="51" height="59" viewBox="0 0 51 59" fill="none" xmlns="http://www.w3.org/2000/svg">
<path d="M25.939 35.1531C24.9319 35.6159 23.8285 36.2189 21.6196 37.4311C20.7821 37.9022 19.9069 38.3733 19.0924 38.8172C19.0359 38.7607 18.9773 38.6895 18.9207 38.6309C14.5511 33.9618 6.46921 30.6641 6.81258 24.3934C6.9403 22.1091 7.72546 16.1126 22.3335 8.83052C34.3559 2.90521 43.9222 4.54671 45.5742 8.18774C47.9485 13.3781 40.4466 23.0366 28.0306 24.4373C26.6565 24.7161 25.2373 24.6824 23.8779 24.3388C22.5185 23.9953 21.2537 23.3506 20.177 22.4525C19.5195 21.7385 19.4211 21.6966 19.1783 21.839C18.7784 22.0484 19.0359 22.6953 19.1783 23.0659C19.6519 23.9234 20.2926 24.6772 21.0625 25.2828C21.8325 25.8885 22.7161 26.3335 23.661 26.5918C28.547 27.6479 33.6412 27.1433 38.2251 25.1492C45.75 22.2368 51.6251 14.1403 49.904 7.35233C48.1767 0.470175 36.7532 -1.79945 25.9453 2.04049C19.1768 4.32141 12.9233 7.91201 7.54121 12.6076C1.58658 18.177 0.644395 23.0178 1.02965 25.0445C2.41571 32.2407 12.3359 36.9245 16.314 40.3938C16.1046 40.509 15.9288 40.6032 15.7717 40.6932C13.7869 41.6794 6.22005 45.6345 4.33358 49.8178C2.19168 54.558 4.67696 57.9562 6.31846 58.4126C8.7922 59.0052 11.3892 58.8104 13.7469 57.8554C16.1046 56.9005 18.1052 55.2331 19.4693 53.0861C20.6277 51.3057 21.3391 49.2719 21.5428 47.1577C21.7466 45.0434 21.4368 42.9112 20.6397 40.9424C21.11 40.5673 21.6115 40.2331 22.1388 39.9436C23.1522 39.3448 24.1174 38.7544 24.9738 38.298C27.9058 36.9246 31.1056 36.2174 34.3433 36.2272C41.1396 37.0271 42.4817 41.2669 42.2242 43.0529C42.1037 43.6865 41.8489 44.287 41.4769 44.8139C41.1049 45.3409 40.6244 45.782 40.0676 46.1076C39.5965 46.4071 39.4395 46.5076 39.4814 46.7211C39.5379 47.0352 39.7661 47.0205 40.166 46.964C41.1871 46.6413 42.0867 46.0172 42.7466 45.1738C43.4066 44.3304 43.7959 43.3071 43.8636 42.2384C44.073 38.0509 40.0802 33.4572 33.0117 33.4991C30.8951 33.5027 28.7998 33.9202 26.8435 34.7281C26.5294 34.8579 26.2244 34.9975 25.9285 35.1469L25.939 35.1531ZM15.8366 51.5661C13.5796 54.022 10.439 54.9496 9.08221 54.1644C7.61658 53.3269 8.19655 49.6942 10.9666 47.0959C12.6072 45.6177 14.3804 44.2938 16.2638 43.1408C16.5925 42.9314 17.0782 42.6551 17.6624 42.3033L17.8194 42.2175L18.1628 42.0081C18.6568 43.6645 18.7018 45.4224 18.293 47.1018C17.8843 48.7813 17.0366 50.3219 15.8366 51.5661Z" fill="black"/>
</svg>
