<svg width="61" height="61" viewBox="0 0 61 61" fill="none" xmlns="http://www.w3.org/2000/svg">
<path d="M54.6961 44.176C47.2891 54.043 31.4731 50.713 21.3301 51.19C21.3301 51.19 19.5331 51.292 17.7271 51.589C17.7271 51.589 18.4111 51.298 19.2841 50.995C26.4061 48.532 29.7721 48.037 34.1011 45.814C42.2311 41.65 50.3251 32.575 51.9721 23.149C48.8761 32.215 39.4621 40.018 30.8911 43.186C25.0261 45.352 14.4151 47.458 14.4121 47.458C14.2679 47.3842 14.1249 47.3082 13.9831 47.23C6.76806 43.72 6.55806 28.09 19.6651 23.053C25.4131 20.845 30.9061 22.057 37.1191 20.578C43.7431 19.003 51.4171 14.038 54.5341 7.54597C58.0291 17.92 62.2291 34.144 54.6961 44.176ZM54.8221 4.33597C53.9841 6.34521 52.9117 8.2484 51.6271 10.006C48.8346 7.1279 45.4925 4.84002 41.7991 3.27803C38.1057 1.71605 34.1362 0.911789 30.1261 0.912965C13.5571 0.912965 0.081058 14.389 0.081058 30.955C0.0791233 35.0872 0.932355 39.1752 2.58708 42.9617C4.24181 46.7482 6.66222 50.1513 9.69606 52.957L10.3561 53.539C9.87499 53.0571 9.60499 52.4039 9.60541 51.723C9.60583 51.0421 9.87664 50.3893 10.3583 49.908C10.84 49.4268 11.493 49.1565 12.1739 49.1566C12.8548 49.1568 13.5078 49.4273 13.9893 49.9088C14.4707 50.3902 14.7413 51.0432 14.7414 51.7241C14.7415 52.405 14.4713 53.0581 13.99 53.5397C13.5087 54.0214 12.8559 54.2922 12.175 54.2926C11.4941 54.293 10.8409 54.023 10.3591 53.542L10.8061 53.938C16.2073 58.5044 23.0532 61.0068 30.1261 61C45.9601 61 58.9651 48.676 60.0781 33.124C60.9001 25.507 58.6501 15.835 54.8221 4.33597Z" fill="black"/>
</svg>
