<svg width="21" height="21" viewBox="0 0 21 21" fill="none" xmlns="http://www.w3.org/2000/svg">
<g clip-path="url(#clip0_3569_460)">
<path d="M19.6117 10.2259C17.6459 6.59174 14.1984 4.39258 10.3834 4.39258C6.56842 4.39258 3.11508 6.59174 1.16675 10.2259L1.00342 10.5001L1.15508 10.7801C3.12092 14.4142 6.56842 16.6134 10.3834 16.6134C14.1984 16.6134 17.6518 14.4434 19.6117 10.7801L19.7634 10.5001L19.6117 10.2259ZM10.3834 15.4176C7.09925 15.4176 4.08342 13.5859 2.33342 10.5001C4.08342 7.41424 7.09925 5.58258 10.3834 5.58258C13.6676 5.58258 16.6484 7.42008 18.4276 10.5001C16.6484 13.5859 13.6618 15.4176 10.3834 15.4176Z" fill="white"/>
<path d="M10.5525 6.51573C9.76161 6.5215 8.99013 6.76154 8.33554 7.20551C7.68095 7.64949 7.17261 8.27749 6.87472 9.01021C6.57684 9.74292 6.50277 10.5475 6.66188 11.3223C6.82099 12.097 7.20613 12.8073 7.76866 13.3633C8.3312 13.9193 9.04589 14.2962 9.82247 14.4463C10.5991 14.5963 11.4027 14.5129 12.1319 14.2065C12.8611 13.9001 13.4831 13.3845 13.9195 12.7248C14.3558 12.0651 14.5868 11.2908 14.5834 10.4999C14.5811 9.9734 14.4749 9.45253 14.271 8.96714C14.067 8.48175 13.7693 8.04138 13.3948 7.67126C13.0204 7.30114 12.5766 7.00855 12.0888 6.81027C11.6011 6.61198 11.079 6.51189 10.5525 6.51573ZM10.5525 13.3524C9.99386 13.3466 9.44933 13.1759 8.98735 12.8617C8.52537 12.5475 8.16654 12.1038 7.95592 11.5863C7.7453 11.0688 7.69228 10.5006 7.80353 9.95305C7.91478 9.40552 8.18534 8.90308 8.58121 8.50881C8.97709 8.11455 9.48063 7.84605 10.0286 7.73704C10.5766 7.62802 11.1446 7.68336 11.6612 7.89609C12.1778 8.10882 12.6201 8.46946 12.9324 8.93272C13.2447 9.39598 13.4132 9.9412 13.4167 10.4999C13.4183 10.8759 13.3452 11.2485 13.2016 11.596C13.0581 11.9436 12.847 12.2592 12.5806 12.5245C12.3141 12.7899 11.9977 12.9997 11.6496 13.1418C11.3014 13.2839 10.9285 13.3555 10.5525 13.3524Z" fill="white"/>
</g>
<defs>
<clipPath id="clip0_3569_460">
<rect width="21" height="21" fill="white"/>
</clipPath>
</defs>
</svg>
