<svg width="32" height="18" viewBox="0 0 32 18" fill="currentColor" xmlns="http://www.w3.org/2000/svg">
<path d="M15.5737 13.5203C14.962 14.4818 14.3751 15.4225 13.0599 16.3363C12.3564 16.8294 10.7371 17.7929 8.4355 17.7929C4.04431 17.7929 0.5 14.6004 0.5 8.98765C0.5 4.08227 3.83406 0.207275 8.52913 0.207275C10.4313 0.207275 12.1213 0.864838 13.3658 1.85128C14.5167 2.7669 15.0557 3.68278 15.526 4.50478L12.2397 6.14684C12.0046 5.60771 11.7216 5.04378 10.9952 4.43396C10.1962 3.79928 9.39894 3.61196 8.71644 3.61196C6.04012 3.61196 4.63119 6.10103 4.63119 8.87103C4.63119 12.5109 6.48744 14.3175 8.71644 14.3175C10.8766 14.3175 11.7464 12.8148 12.3086 11.8533L15.5737 13.5204V13.5203ZM27.0859 0.723463H31.5L25.7477 17.2997H21.5229L15.8414 0.723463H20.2554L23.6831 12.511L27.0859 0.723463Z" fill="black"/>
</svg>
